<svg xmlns="http://www.w3.org/2000/svg" viewBox="0 0 32 32"><style>.sheet{fill:#13291A}.mint{fill:#5F9A3E}.line{stroke:#FAFBF7}.seal{fill:#5F9A3E;stroke:#13291A}.ring,.check{stroke:#FAFBF7}@media (prefers-color-scheme:dark){.sheet{fill:#F3F6EE}.mint{fill:#5F9A3E}.line{stroke:#13291A}.seal{fill:#5F9A3E;stroke:#0E2214}.ring,.check{stroke:#0E2214}}</style><path class="sheet" d="M7 3H18L25 10V26A2 2 0 0 1 23 28H7A2 2 0 0 1 5 26V5A2 2 0 0 1 7 3Z"/><path class="mint" d="M18 3V8A2 2 0 0 0 20 10H25Z"/><path class="line" d="M9 13H19M9 17H16M9 21H12.5" stroke-width="1.6" stroke-linecap="round" fill="none"/><path class="seal" d="M23.60 16.60L24.99 17.51L26.64 17.29L27.50 18.71L29.07 19.24L29.23 20.89L30.42 22.04L29.85 23.60L30.42 25.16L29.23 26.31L29.07 27.96L27.50 28.49L26.64 29.91L24.99 29.69L23.60 30.60L22.21 29.69L20.56 29.91L19.70 28.49L18.13 27.96L17.97 26.31L16.78 25.16L17.35 23.60L16.78 22.04L17.97 20.89L18.13 19.24L19.70 18.71L20.56 17.29L22.21 17.51Z" stroke-width="1.3" stroke-linejoin="round" paint-order="stroke"/><circle class="ring" cx="23.6" cy="23.6" r="4.6" fill="none" stroke-opacity=".55" stroke-width=".6"/><path class="check" d="M21.4 23.7L23 25.3L26 22.1" fill="none" stroke-width="1.5" stroke-linecap="round" stroke-linejoin="round"/></svg>
